<?xml version="1.0" encoding="UTF-8"?>
<svg width="301px" height="100px" viewBox="0 0 301 100" version="1.1" xmlns="http://www.w3.org/2000/svg" xmlns:xlink="http://www.w3.org/1999/xlink">
    <!-- Generator: Sketch 44.1 (41455) - http://www.bohemiancoding.com/sketch -->
    <title>logo</title>
    <desc>Created with Sketch.</desc>
    <defs></defs>
    <g id="Page-1" stroke="none" stroke-width="1" fill="none" fill-rule="evenodd">
        <g id="logo" fill="#00BD70">
            <path d="M290.879206,20.2873016 C284.52127,18.6095238 280.152222,20.8761905 277.166508,23.7571429 C276.614127,19.4309524 273.653016,14.5206349 269.890317,14.4015873 C267.839524,14.3365079 266.287143,14.3031746 263.966508,20.1428571 C262.322063,24.2785714 260.459365,30.2166667 258.580794,37.3150794 C255.270476,49.8198413 253.693492,68.8134921 253.361746,73.6055556 C252.877619,80.5944444 269.404603,82.2095238 268.872857,76.081746 C267.99746,65.9928571 269.776032,52.3380952 272.725238,43.2031746 C274.399048,38.0174603 278.568889,32.731746 282.45619,31.3087302 C280.954603,32.6198413 280.487937,35.3277778 280.479206,36.6134921 C280.445079,41.5380952 281.983175,45.3412698 288.200635,46.7595238 C293.310159,47.9253968 300.019683,44.7460317 300.586349,33.8246032 C300.891905,27.9261905 296.269683,21.7031746 290.879206,20.2873016" id="Fill-29"></path>
            <path d="M10.3306349,29.5003175 C9.65920635,25.505873 13.3290476,23.4931746 15.2171429,23.1939683 C20.1290476,22.39 23.9195238,28.3773016 24.6695238,30.9622222 C25.2369841,32.9130159 24.7933333,34.8606349 23.4560317,36.3249206 C22.4949206,37.3773016 21.144127,38.0780952 19.6520635,38.3074603 C18.1274603,38.5392063 16.012381,37.7725397 14.2639683,36.355873 C12.1893651,34.671746 10.7925397,32.2487302 10.3306349,29.5003175" id="Fill-31"></path>
            <path d="M1.81206349,47.7198413 C-0.646666667,44.5103175 1.61444444,41.2214286 3.12079365,40.1738095 C7.03111111,37.4238095 13.1477778,41.0738095 15.0136508,43.0190476 C16.422381,44.4873016 16.9477778,46.3730159 16.4668254,48.2095238 C16.1207937,49.5301587 15.27,50.7047619 14.0755556,51.5269841 C12.8533333,52.3650794 10.6485714,52.5777778 8.45809524,52.068254 C5.85730159,51.4626984 3.50412698,49.9285714 1.81206349,47.7198413" id="Fill-33"></path>
            <path d="M41.8588889,22.1384921 C40.87,18.0948413 36.7049206,17.4654762 34.8588889,17.8448413 C30.0430159,18.8027778 28.9787302,25.843254 29.3295238,28.5702381 C29.5953968,30.6289683 30.7811111,32.3297619 32.5930159,33.2559524 C33.8938095,33.9210317 35.4104762,34.1138889 36.8684127,33.8075397 C38.3549206,33.4940476 39.9819048,32.0210317 41.0128571,30.0551587 C42.2350794,27.7210317 42.5390476,24.9210317 41.8588889,22.1384921" id="Fill-35"></path>
            <path d="M58.7588095,30.6004762 C58.8040476,26.4790476 54.7992857,24.9798413 52.8556349,24.9504762 C47.7953175,24.8480952 44.9294444,31.4290476 44.5834127,34.1401587 C44.3223016,36.1885714 45.0738889,38.0861905 46.6484921,39.3687302 C47.7802381,40.2893651 49.2484921,40.8012698 50.782619,40.8163492 C52.350873,40.8314286 54.3548413,39.7544444 55.8881746,38.0742857 C57.7072222,36.078254 58.7278571,33.4369841 58.7588095,30.6004762" id="Fill-37"></path>
            <path d="M55.561746,58.4635714 C55.7919048,61.6310317 55.1292063,64.9770635 52.627619,67.1103968 C49.711746,69.5969048 46.1339683,69.1834127 42.564127,68.5310317 C41.3728571,68.3135714 40.28,68.4294444 39.248254,68.7405556 C38.2173016,69.0524603 37.2561905,69.5572222 36.4173016,70.387381 C33.9046032,72.8778571 31.4379365,75.453254 27.5411111,75.0246825 C24.198254,74.6564286 20.532381,72.1111905 19.3879365,69.1151587 C14.8688889,57.2929365 24.2871429,41.4151587 28.9442857,37.8762698 C33.73,38.0000794 54.5752381,44.9040476 55.561746,58.4635714" id="Fill-39"></path>
            <path d="M141.62246,14.573254 C126.260556,16.6438889 119.935159,44.6883333 119.852619,55.8351587 C119.793889,64.255 122.749444,71.5692857 127.974841,75.9875397 C131.729603,79.1637302 136.356587,80.5097619 141.010556,79.8200794 C145.762937,79.1089683 151.445476,73.7669048 155.488333,66.2113492 C160.285952,57.2399206 162.432778,46.0423016 161.51373,34.5454762 C160.178016,17.8383333 147.516111,13.7359524 141.62246,14.573254 M149.647857,41.7923016 C149.008968,52.9772222 144.366905,67.4470635 140.212937,68.705 C137.490714,69.6303968 135.582778,63.2042063 135.551032,57.0907143 C135.478016,42.7192857 142.175635,27.7224603 146.142302,27.9756349 C149.41373,28.1843651 149.990714,35.7978571 149.647857,41.7923016" id="Fill-41"></path>
            <path d="M240.186349,63.2366667 C237.140317,65.1588889 236.164921,69.1406349 230.718095,68.6961905 C225.214921,68.2461905 224.110952,62.3668254 224.153016,58.0961905 C224.176825,55.6485714 224.551429,53.572381 224.551429,53.572381 C224.551429,53.572381 231.990317,53.7422222 239.230794,51.5668254 C247.431587,49.1033333 251.027619,45.6604762 253.20381,39.6469841 C255.627619,32.9485714 255.292698,22.9009524 247.431587,17.3398413 C242.025238,13.5160317 232.291111,13.0438095 221.968889,23.7477778 C214.692698,31.2922222 210.418095,42.0549206 209.899841,54.4811111 C209.319683,68.3953968 219.592698,79.251746 227.559365,79.6803175 C236.301429,80.1509524 241.203016,76.5763492 245.354603,69.6906349 C247.69746,65.8049206 244.716508,60.3771429 240.186349,63.2366667 M244.003016,33.6009524 C243.026032,39.5033333 235.031587,44.4977778 226.47127,43.8303175 C230.07127,33.6231746 235.881587,28.7969841 238.589524,27.8215873 C240.843492,27.0096825 244.587937,30.0628571 244.003016,33.6009524" id="Fill-43"></path>
            <path d="M208.613095,35.5821429 C205.336905,60.5956349 190.152778,76.8257937 179.09881,79.6416667 C176.324206,80.3480159 160.83373,70.2805556 168.35119,21.5996032 C169.582937,13.6178571 174.506746,13.8448413 179.79881,16.4400794 C184.980556,18.9813492 186.350397,24.0607143 185.512302,28.5876984 C184.64246,33.2821429 182.740873,39.6742063 182.29246,43.809127 C180.65754,58.8710317 183.696429,65.4654762 183.696429,65.4654762 C183.696429,65.4654762 193.613889,57.0654762 196.348016,32.877381 C197.249603,24.9075397 196.08373,19.2575397 198.947222,18.3535714 C204.043254,16.7464286 210.093254,24.2757937 208.613095,35.5821429" id="Fill-45"></path>
            <path d="M92.3355556,13.9869048 C100.461746,12.1964286 104.463333,15.1321429 104.839524,21.356746 C105.479206,31.8670635 94.9053968,47.5329365 80.4625397,49.3361111 C82.8538095,40.8400794 87.2363492,27.2210317 92.3355556,13.9869048 M128.714127,83.0734127 C128.058571,82.3075397 127.027619,81.8734127 125.578413,82.0702381 C122.656984,82.9154762 117.485556,84.1376984 113.425238,81.5789683 C108.706984,78.6170635 89.8006349,57.6940476 89.8006349,57.6940476 C99.3188889,55.1464286 109.43873,47.5781746 113.001429,43.572619 C114.248254,42.2511905 115.405397,40.8464286 116.448254,39.3551587 C116.514921,39.2630952 116.555397,39.2059524 116.55381,39.2075397 C120.310159,33.772619 122.546667,27.2178571 122.081587,19.5369048 C121.086349,3.09404762 107.700635,-6.65595238 69.898254,6.36865079 C59.5863492,9.9218254 66.5077778,21.8702381 71.4712698,19.893254 C72.6077778,19.440873 74.4474603,18.5718254 75.2260317,18.227381 C70.6903175,34.043254 56.3212698,76.8051587 57.1442857,89.906746 C57.7292063,99.5313492 69.6760317,100.190079 72.3307937,98.7575397 C75.7363492,96.9186508 72.945873,88.575 77.9093651,65.0623016 C77.9688889,64.7837302 90.311746,81.4924603 96.4522222,88.9503968 C100.781587,94.2075397 108.786349,99.0051587 115.44746,97.6884921 C123.513333,96.2035714 127.114127,92.3972222 129.044286,88.309127 C129.85619,86.5876984 129.817302,84.3623016 128.714127,83.0734127" id="Fill-47"></path>
        </g>
    </g>
</svg>