<?xml version="1.0" encoding="iso-8859-1"?>
<!-- Generator: Adobe Illustrator 18.0.0, SVG Export Plug-In . SVG Version: 6.00 Build 0)  -->
<!DOCTYPE svg PUBLIC "-//W3C//DTD SVG 1.1//EN" "http://www.w3.org/Graphics/SVG/1.1/DTD/svg11.dtd">
<svg version="1.1" id="Layer_1" xmlns="http://www.w3.org/2000/svg" xmlns:xlink="http://www.w3.org/1999/xlink" x="0px" y="0px"
	 viewBox="0 0 658.386 222.693" style="enable-background:new 0 0 658.386 222.693;" xml:space="preserve">
<g>
	<path style="fill:#78C145;" d="M355.859,77.628c-1.086,27.441-7.519,43.624-12.717,52.43c-5.881,9.94-11.881,13.519-13.863,13.679
		c-1.804,0.148-4.7-2.766-4.813-11.246c-0.469-35.232,17.779-72.483,28.266-73.023c0.19-0.012,0.392,0.006,0.694,0.303
		C354.138,60.466,356.405,63.813,355.859,77.628 M341.355,29.904c-32.509,2.213-49.689,60.602-51.416,84.15
		c-1.3,17.791,3.875,33.666,14.219,43.742c7.436,7.24,16.949,10.735,26.806,9.934c10.071-0.837,22.735-11.329,32.265-26.729
		c11.317-18.29,17.382-41.653,17.055-66.085C379.816,39.417,353.835,28.966,341.355,29.904"/>
	<path style="fill:#78C145;" d="M454.037,40.354c-7.495-0.261-8.866,9.655-8.658,25.678c0.184,14.041-3.406,31.405-9.596,46.532
		c-6.48,15.821-12.723,21.922-15.281,22.147c-0.754-0.694-2.487-4.587-2.635-15.768c-0.214-16.159,6.201-32.236,10.89-43.92
		c3.08-7.685,5.513-13.738,5.46-18.005c-0.148-11.269-15.934-28.912-23.791-28.853c-6.51,0.012-12.527,10.854-17.892,32.206
		c-4.747,18.895-7.436,40.704-7.21,58.276c0.255,19.144,7.353,30.069,13.263,35.927c7.596,7.513,16.575,10.178,22.444,10.195
		c20.076-0.13,49.083-64.329,48.632-98.594C469.478,52.3,462.47,40.657,454.037,40.354"/>
	<path style="fill:#78C145;" d="M532.75,58.711c4.949,0.267,8.907,8.872,8.955,12.421c0.166,12.272-18.325,26.699-34.544,28.117
		C513.624,75.309,527.261,59.179,532.75,58.711 M545.094,119.639c-4.314-0.504-6.931,3.614-10.249,8.842
		c-3.964,6.243-9.626,14.587-17.459,16.088c-11.685,2.237-12.581-11.584-12.688-19.945c-0.018-1.139-0.018-2.261,0-3.371
		c10.913-1.638,23.981-6.949,34.532-14.189c14.527-9.97,22.42-22.201,22.254-34.888c-0.13-9.786-12.913-35.689-36.063-38.099
		c-12.136-1.258-26.361,7.555-37.12,22.966c-12.106,17.334-18.604,40.472-18.284,64.815c0.356,27.263,24.497,45.244,41.63,46.775
		c19.423,1.579,40.413-18.183,40.146-38.508C551.699,122.974,548.269,120.007,545.094,119.639"/>
	<path style="fill:#78C145;" d="M634.734,53.958c-13.263-2.688-21.667,0.73-26.853,5.074c-3.329-6.385-10.8-15.845-18.865-17.139
		c-4.178-0.671-7.596,3.786-11.809,15.394c-2.985,8.219-6.243,19.975-9.424,34.004c-5.602,24.699-10.237,53.576-10.112,62.958
		c0.089,6.854,12.86,20.236,25.755,22.183c4.92,0.742,5.721-5.679,8.094-24.758c1.798-14.403,4.255-34.135,9.442-52.229
		c2.943-10.272,9.62-20.07,17.489-23.203c-2.967,2.694-3.584,8.017-3.555,10.534c0.16,11.869,6.997,18.236,18.771,20.58
		c10.444,2.053,24.978-4.19,24.717-23.435C658.146,66.2,645.98,56.225,634.734,53.958"/>
	<path style="fill:#78C145;" d="M211.627,100.3c7.139-23.601,15.845-48.727,26.533-73.545c18.984-3.068,20.836,8.029,21.002,21.162
		c0.297,22.183-23.322,48.466-41.962,51.991C215.033,100.312,213.2,100.383,211.627,100.3 M300.37,175.987
		c-6.231,1.484-14.61,2.481-22.901-3.311c-9.632-6.706-16.848-20.224-24.491-32.028c-7.774-12.32-12.854-19.619-12.854-19.619
		c16.414-7.471,29.725-19.245,37.624-27.316c2.754-2.659,5.329-5.495,7.673-8.534c0.148-0.184,0.237-0.297,0.237-0.297
		c8.451-11.062,13.809-24.634,13.602-40.846c-0.54-41.345-31.34-48.318-68.738-42.015c-37.404,6.278-63.67,28.408-64.174,31.227
		c-0.493,2.878,1.038,18.355,7.258,18.776c5.649,0.35,19.215-13.809,21.376-14.225c-13.37,33.339-46.816,136.918-46.395,164.899
		c0.273,20.313,25.31,21.477,31.209,19.115c3.424-1.317,9.157-37.393,21.957-86.381c0.154-0.582,9.032,5.739,9.602,6.237
		c15.613,13.714,17.376,37.298,29.553,53.611c8.581,11.495,21.138,16.254,35.292,14.148c17.121-2.314,26.372-11.554,30.841-19.963
		c1.881-3.543,2.018-8.231-0.172-11.056C305.562,176.735,303.438,175.714,300.37,175.987"/>
	<path style="fill:#78C145;" d="M22.109,68.7c-3.044-10.646,6.314-17.239,11.352-18.628c13.097-3.685,25.233,11.43,28.058,18.218
		c2.136,5.133,1.525,10.557-1.662,14.949c-2.291,3.151-5.744,5.465-9.732,6.546c-4.065,1.098-10.047-0.338-15.234-3.656
		C28.738,82.183,24.204,76.029,22.109,68.7"/>
	<path style="fill:#78C145;" d="M4.052,117.577c-7.827-8.142-2.576-17.981,1.282-21.358c9.999-8.86,28.117-0.629,33.903,4.184
		c4.374,3.638,6.421,8.712,5.655,13.964c-0.546,3.768-2.546,7.299-5.602,9.952c-3.133,2.712-9.186,3.988-15.429,3.258
		C16.454,126.704,9.44,123.179,4.052,117.577"/>
	<path style="fill:#78C145;" d="M102.127,40.438c-3.899-10.617-15.334-11.05-20.207-9.471C69.215,35.02,68.474,54.348,70.248,61.606
		c1.341,5.478,5.062,9.709,10.237,11.661c3.715,1.401,7.869,1.46,11.709,0.19c3.917-1.294,7.863-5.768,10.053-11.388
		C104.839,55.399,104.81,47.743,102.127,40.438"/>
	<path style="fill:#78C145;" d="M147.299,57.356c-1.116-11.02-12.266-13.821-17.465-13.317
		c-13.548,1.246-19.227,19.678-19.34,27.025c-0.077,5.549,2.498,10.397,7.092,13.346c3.294,2.124,7.37,3.044,11.477,2.629
		c4.19-0.433,9.222-3.911,12.812-8.86C146.136,72.305,148.064,64.94,147.299,57.356"/>
	<path style="fill:#78C145;" d="M110.751,92.034c-10.937-5.827-26.016-12.955-38.769-8.991
		c-11.584,6.474-16.088,22.005-18.848,33.707c-4,16.966-5.044,34.87,5.299,50.08c4.587,6.753,12.403,11.608,20.966,11.584
		c9.982-0.018,16.07-6.593,21.72-13.607c1.887-2.338,4.178-3.893,6.694-4.973c2.522-1.08,5.252-1.685,8.332-1.472
		c9.216,0.635,18.385,0.665,25.055-6.457c5.721-6.106,7.157-14.931,4.967-22.711C141.23,111.665,126.607,100.479,110.751,92.034"/>
</g>
</svg>
